<?xml version="1.0" encoding="UTF-8" standalone="no"?>
<svg
   xmlns:dc="http://purl.org/dc/elements/1.1/"
   xmlns:cc="http://creativecommons.org/ns#"
   xmlns:rdf="http://www.w3.org/1999/02/22-rdf-syntax-ns#"
   xmlns:svg="http://www.w3.org/2000/svg"
   xmlns="http://www.w3.org/2000/svg"
   id="svg26"
   preserveAspectRatio="xMidYMid meet"
   viewBox="0 0 500.000000 500.000000"
   height="500.000000pt"
   width="500.000000pt"
   version="1.0">
  <defs
     id="defs30" />
  <metadata
     id="metadata2">
Created by potrace 1.16, written by Peter Selinger 2001-2019
<rdf:RDF>
  <cc:Work
     rdf:about="">
    <dc:format>image/svg+xml</dc:format>
    <dc:type
       rdf:resource="http://purl.org/dc/dcmitype/StillImage" />
  </cc:Work>
</rdf:RDF>
</metadata>
  <g
     id="g24"
     stroke="none"
     fill="#000000"
     transform="translate(0.000000,500.000000) scale(0.100000,-0.100000)">
    <path
       id="path4"
       d="M624 3771 c-24 -11 -50 -33 -62 -54 -22 -34 -22 -36 -23 -735 -1 -667 0 -703 17 -733 11 -18 32 -41 47 -53 28 -20 39 -21 337 -21 296 0 310 1 336 21 15 11 37 33 48 48 21 27 21 38 24 722 3 770 5 738 -64 790 l-37 29 -291 3 c-267 2 -294 0 -332 -17z m635 -19 c19 -9 44 -30 55 -45 21 -28 21 -39 24 -680 2 -359 0 -676 -3 -706 -5 -41 -14 -61 -40 -90 l-33 -36 -316 0 -316 0 -30 31 c-17 17 -35 48 -40 70 -13 54 -13 1330 0 1373 11 38 44 79 75 91 11 5 148 9 305 9 252 1 289 -1 319 -17z" />
    <path
       id="path6"
       d="M613 3189 c-10 -10 -13 -78 -13 -270 0 -310 -11 -289 145 -289 114 1 167 10 204 38 66 49 84 143 43 217 l-23 40 21 40 c26 51 25 90 -2 145 -40 77 -59 85 -221 88 -105 2 -145 0 -154 -9z m282 -104 c30 -29 32 -68 5 -95 -17 -17 -33 -20 -115 -20 l-95 0 0 70 0 70 90 0 c83 0 93 -2 115 -25z m4 -229 c25 -23 28 -72 5 -104 -14 -20 -23 -22 -115 -22 l-99 0 0 76 0 76 94 -4 c75 -2 98 -7 115 -22z" />
    <path
       id="path8"
       d="M1136 3184 c-22 -22 -24 -417 -2 -469 28 -65 141 -103 166 -55 14 26 -3 60 -31 60 -11 0 -29 5 -40 10 -18 10 -19 23 -19 225 0 210 0 214 -22 229 -28 20 -33 20 -52 0z" />
    <path
       id="path10"
       d="M2343 3189 c-10 -10 -13 -78 -13 -270 0 -221 2 -260 16 -273 39 -40 74 -5 74 73 l0 58 88 5 c94 6 130 19 176 64 43 43 59 83 59 145 0 71 -32 132 -91 174 -42 29 -48 30 -170 33 -93 2 -130 0 -139 -9z m257 -95 c29 -18 60 -71 60 -105 0 -33 -29 -79 -63 -99 -24 -15 -50 -20 -104 -20 l-73 0 0 120 0 120 76 0 c53 0 84 -5 104 -16z" />
    <path
       id="path12"
       d="M2822 3188 c-17 -17 -17 -519 0 -536 18 -18 56 -14 68 7 5 11 10 67 10 124 0 97 2 106 25 131 50 54 118 61 167 17 l33 -29 5 -122 c5 -112 7 -124 27 -137 19 -13 24 -12 43 7 21 21 22 29 18 139 -3 81 -9 125 -21 147 -21 41 -80 92 -115 100 -15 3 -33 8 -41 10 -21 7 -86 -14 -115 -37 l-26 -20 0 83 c0 59 -4 90 -16 106 -17 24 -43 29 -62 10z" />
    <path
       id="path14"
       d="M1983 3038 c-64 -14 -131 -80 -148 -144 -26 -101 15 -192 106 -238 63 -31 128 -34 179 -8 42 21 51 53 20 75 -19 14 -26 14 -58 0 -58 -24 -121 -1 -151 55 l-12 22 149 0 c160 0 172 4 172 52 0 120 -131 215 -257 186z m132 -109 c59 -52 50 -59 -80 -59 -77 0 -115 4 -115 11 0 6 15 26 34 45 29 29 41 34 80 34 36 0 52 -6 81 -31z" />
    <path
       id="path16"
       d="M3453 3040 c-117 -28 -190 -153 -153 -265 26 -80 113 -144 196 -145 58 0 139 43 172 92 36 56 43 148 13 205 -43 86 -140 134 -228 113z m91 -94 c63 -26 90 -98 61 -159 -52 -109 -225 -75 -225 44 0 51 24 94 64 113 39 19 58 20 100 2z" />
    <path
       id="path18"
       d="M3911 3038 c-59 -13 -123 -77 -139 -140 -16 -62 -16 -230 0 -246 7 -7 21 -12 33 -12 39 0 45 19 45 130 0 127 15 162 80 181 34 10 46 10 75 -4 58 -27 69 -57 75 -187 l5 -115 35 0 35 0 3 115 c4 133 -5 173 -50 219 -56 57 -117 75 -197 59z" />
    <path
       id="path20"
       d="M4395 3038 c-115 -25 -186 -143 -154 -256 32 -115 173 -184 283 -138 44 18 56 53 27 77 -20 16 -25 16 -66 2 -36 -12 -51 -12 -80 -3 -32 11 -75 51 -75 71 0 5 67 9 149 9 168 0 178 4 168 66 -19 118 -135 198 -252 172z m131 -112 c19 -19 34 -39 34 -45 0 -7 -38 -11 -115 -11 -130 0 -139 7 -80 59 29 25 45 31 81 31 39 0 51 -5 80 -34z" />
    <path
       id="path22"
       d="M1370 3021 c-15 -29 -12 -190 5 -248 46 -156 252 -191 343 -58 37 54 57 235 32 299 -10 28 -49 36 -68 14 -6 -7 -12 -66 -14 -131 l-3 -119 -33 -29 c-37 -33 -93 -39 -130 -13 -41 28 -52 66 -52 177 0 67 -4 107 -12 115 -18 18 -56 14 -68 -7z" />
  </g>
</svg>
